<svg width="150" height="150" viewBox="0 0 150 150" fill="none" xmlns="http://www.w3.org/2000/svg">
<path d="M99.2084 108.333C97.7501 112.083 95.2918 114.583 92.5001 114.583H57.2501C54.4168 114.583 52.0001 112.083 50.5418 108.333H4.16675V115.625C4.38 118.297 5.63569 120.778 7.66263 122.532C9.68957 124.286 12.3251 125.173 15.0001 125H135C137.675 125.173 140.311 124.286 142.338 122.532C144.364 120.778 145.62 118.297 145.833 115.625V108.333H99.2084Z" fill="#00FF47"/>
<path d="M29.1668 41.6667H120.833V100H133.333V31.5417C133.367 29.8469 132.729 28.2076 131.558 26.9819C130.387 25.7562 128.778 25.0437 127.083 25H22.9168C21.2222 25.0437 19.6137 25.7562 18.4427 26.9819C17.2716 28.2076 16.6332 29.8469 16.6668 31.5417V100H29.1668V41.6667Z" fill="#00FF47"/>
</svg>
