<svg width="150" height="148" viewBox="0 0 150 148" fill="none" xmlns="http://www.w3.org/2000/svg">
<path d="M37.1484 71.3716C48.7793 54.5275 59.9707 44.697 59.9707 44.697C59.9707 44.697 47.6367 30.6412 32.7832 25.3235L31.8164 25.0936C19.3237 35.8108 11.4303 50.7716 9.72358 66.9669C8.01692 83.1623 12.6236 99.3911 22.6172 112.389C22.6172 111.125 22.7929 92.1823 37.1484 71.3716Z" fill="#00FF47"/>
<path d="M140.625 73.5849C140.632 64.3984 138.632 55.3172 134.761 46.9527C130.89 38.5881 125.237 31.1345 118.183 25.0936L117.246 25.3522C102.392 30.6699 90.0292 44.7258 90.0292 44.7258C90.0292 44.7258 101.221 54.5563 112.851 71.4003C127.207 92.211 127.383 111.153 127.353 112.418C135.991 101.248 140.653 87.6056 140.625 73.5849Z" fill="#00FF47"/>
<path d="M58.9452 23.2537C67.5292 27.0192 74.9413 33.1991 74.9413 33.1991C74.9413 33.1991 82.412 27.0479 90.996 23.2537C101.777 18.5109 110.01 20.0056 112.178 20.523C101.237 13.1465 88.2745 9.19778 74.9999 9.19778C61.7252 9.19778 48.7625 13.1465 37.8221 20.523C39.9315 20.0056 48.1346 18.4822 58.9452 23.2537Z" fill="#00FF47"/>
<path d="M105.088 84.1915C91.5233 67.8361 74.9413 57.2008 74.9413 57.2008C74.9413 57.2008 58.4471 67.8361 44.8534 84.1915C33.1932 98.2474 28.8573 108.566 26.5136 115.178L26.1327 116.557C32.2876 123.294 39.8206 128.683 48.2406 132.372C56.6606 136.062 65.7785 137.968 74.9999 137.968C84.2213 137.968 93.3392 136.062 101.759 132.372C110.179 128.683 117.712 123.294 123.867 116.557L123.457 115.178C121.113 108.566 116.748 98.2474 105.088 84.1915Z" fill="#00FF47"/>
</svg>
