<svg width="150" height="150" viewBox="0 0 150 150" fill="none" xmlns="http://www.w3.org/2000/svg">
<path d="M117.12 59.4727C116.886 54.4629 116.153 49.3652 113.956 44.7949C112.751 42.2661 111.115 39.9662 109.122 37.998C107.253 36.1475 105.156 34.5427 102.882 33.2227C97.8721 30.2344 91.8955 28.2422 78.1553 24.1406C64.415 20.0391 56.25 18.75 56.25 18.75V123.721L79.6582 131.25C79.6582 131.25 79.6875 73.0078 79.6875 43.5059V42.3926C79.6875 39.668 81.8848 37.4707 84.4043 37.4707H84.5508C87.041 37.4707 89.0918 39.668 89.0918 42.3926V81.4453C92.3145 82.998 97.6465 84.1699 101.338 84.1113C103.787 84.1796 106.212 83.6038 108.369 82.4414C110.595 81.2103 112.456 79.4109 113.76 77.2266C115.215 74.7637 116.198 72.0515 116.66 69.2285C117.208 66.0645 117.237 62.7539 117.12 59.4727Z" fill="#00FF47"/>
<path d="M25.3917 104.824C33.4191 101.953 51.5538 96.1816 51.5538 96.1816V82.3535C51.5538 82.3535 29.1417 89.6191 18.9464 93.2226C16.4269 94.1308 13.878 94.9511 11.4171 96.0058C8.54601 97.207 5.73351 98.5546 3.18468 100.342C2.04118 101.073 1.11135 102.094 0.489369 103.301C0.197838 103.921 0.0345873 104.593 0.00941535 105.278C-0.0157567 105.963 0.0976692 106.645 0.342885 107.285C0.928822 108.779 2.0421 110.01 3.30187 110.977C5.58703 112.705 8.31163 113.76 11.0362 114.551C19.3827 117.321 28.1426 118.639 36.9347 118.447C41.1827 118.389 47.4816 117.891 51.5831 117.158V104.853C51.5831 104.853 48.3605 105.586 39.4835 108.516C38.1359 108.955 36.7882 109.482 35.382 109.775C33.3006 110.209 31.1798 110.425 29.0538 110.42C27.1495 110.332 25.1866 110.215 23.3995 109.512C22.755 109.219 22.0519 108.867 21.7882 108.164C21.5538 107.578 21.8761 106.992 22.2862 106.582C23.1066 105.732 24.2784 105.264 25.3917 104.824Z" fill="#00FF47"/>
<path d="M150 101.338C149.971 99.58 148.916 98.0566 147.686 96.9433C145.605 95.0976 143.027 93.9257 140.449 92.9882C138.838 92.4316 137.725 92.0214 136.143 91.5234C128.76 89.121 120.938 88.2421 113.203 88.2128C110.859 88.3007 106.436 88.3593 104.121 88.623C97.7051 89.3554 84.4043 93.1347 84.4043 93.1347V107.432C84.4043 107.432 104.18 101.103 112.676 98.1152C115.542 97.1856 118.54 96.7304 121.553 96.7675C123.457 96.8261 125.42 96.9726 127.236 97.6757C127.881 97.9394 128.555 98.3203 128.848 98.9941C129.111 99.7558 128.584 100.459 127.998 100.898C126.621 102.012 124.863 102.451 123.252 103.066C111.24 107.314 84.375 116.162 84.375 116.162V129.932C84.375 129.932 118.711 118.33 134.414 112.705C137.021 111.738 139.658 110.918 142.148 109.658C144.463 108.486 146.777 107.139 148.535 105.176C149.477 104.119 149.998 102.753 150 101.338Z" fill="#00FF47"/>
</svg>
